<svg width="200" height="200" viewBox="0 0 200 200" fill="none" xmlns="http://www.w3.org/2000/svg">
<rect width="200" height="200" fill="#080808"/>
<path d="M137.28 67.64C135.84 73.72 134.32 80.28 132.72 87.32C131.12 94.36 129.68 101.24 128.4 107.96C127.12 114.68 126.08 120.84 125.28 126.44H102.48L100.8 123.8C102.24 118.2 104.08 112.2 106.32 105.8C108.56 99.24 111.04 92.68 113.76 86.12C116.48 79.56 119.12 73.4 121.68 67.64H137.28ZM92.88 67.64C91.44 73.72 89.92 80.28 88.32 87.32C86.72 94.36 85.28 101.24 84 107.96C82.72 114.68 81.68 120.84 80.88 126.44H58.32L56.88 123.8C58.32 118.2 60.16 112.2 62.4 105.8C64.64 99.24 67.04 92.68 69.6 86.12C72.32 79.56 74.96 73.4 77.52 67.64H92.88Z" fill="white"/>
</svg>
